<svg width="59" height="18" viewBox="0 0 59 18" fill="none" xmlns="http://www.w3.org/2000/svg">
<path d="M4.27297 0.359999C4.29964 0.346666 5.47297 0.339999 7.79297 0.339999C10.2196 0.353333 11.5463 0.379999 11.773 0.42C11.7996 0.433333 11.8596 0.446666 11.953 0.459999C13.1796 0.686666 14.0663 1.21333 14.613 2.04C14.9196 2.49333 15.0663 2.98667 15.053 3.52C15.0396 3.89333 14.9396 4.27333 14.753 4.66C14.5663 5.03333 14.3063 5.38 13.973 5.7C13.3196 6.35333 12.4196 6.88 11.273 7.28C11.2596 7.28 11.2796 7.3 11.333 7.34C11.3596 7.36667 11.3863 7.38667 11.413 7.4C11.8796 7.72 12.2063 8.14667 12.393 8.68C12.513 9.05333 12.5463 9.57333 12.493 10.24C12.4796 10.3867 12.4596 10.5733 12.433 10.8C12.3663 11.4933 12.333 12 12.333 12.32C12.3463 12.8133 12.4396 13.1467 12.613 13.32C12.733 13.4267 12.913 13.48 13.153 13.48C13.2996 13.48 13.4063 13.4667 13.473 13.44C13.633 13.3733 13.793 13.2467 13.953 13.06C14.1263 12.8067 14.2596 12.5467 14.353 12.28C14.4196 12.0667 14.4996 11.9467 14.593 11.92C14.6463 11.9067 14.7463 11.9 14.893 11.9C15.1463 11.9 15.2996 11.9333 15.353 12C15.4463 12.1067 15.3796 12.3867 15.153 12.84C14.753 13.68 14.2063 14.1933 13.513 14.38C13.4063 14.4067 13.2063 14.42 12.913 14.42C12.5663 14.42 12.3396 14.4133 12.233 14.4C10.9396 14.2267 10.1596 13.6933 9.89297 12.8C9.81297 12.5333 9.79964 12.2333 9.85297 11.9C9.91964 11.5667 10.013 11.16 10.133 10.68C10.2663 10.1467 10.3596 9.74667 10.413 9.48C10.4796 9.12 10.4263 8.76667 10.253 8.42C10.1863 8.3 10.0996 8.18667 9.99297 8.08C9.7663 7.86667 9.4863 7.72667 9.15297 7.66C9.09964 7.64667 8.6463 7.64 7.79297 7.64H6.55297L6.53297 7.72C6.53297 7.70667 6.31964 8.55333 5.89297 10.26C5.47964 11.9267 5.27964 12.7667 5.29297 12.78C5.31964 12.8067 5.3663 12.82 5.43297 12.82C5.59297 12.86 5.99297 12.88 6.63297 12.88C6.9663 12.88 7.15964 12.9267 7.21297 13.02C7.2263 13.0733 7.2063 13.2267 7.15297 13.48C7.0863 13.7333 7.0263 13.8867 6.97297 13.94L6.91297 14H6.61297C5.15964 13.9333 3.49297 13.9267 1.61297 13.98C1.17297 13.9933 0.926302 13.9533 0.872969 13.86C0.859635 13.82 0.879635 13.6667 0.932969 13.4C1.01297 13.1333 1.0663 12.98 1.09297 12.94L1.17297 12.88H1.85297C2.59964 12.8667 3.01964 12.8133 3.11297 12.72C3.15297 12.6933 3.63297 10.84 4.55297 7.16C5.47297 3.48 5.93297 1.62667 5.93297 1.6C5.93297 1.58667 5.91964 1.56667 5.89297 1.54C5.83964 1.51333 5.47964 1.48667 4.81297 1.46H4.13297L4.05297 1.38C4.01297 1.34 3.99297 1.3 3.99297 1.26L4.21297 0.439999C4.21297 0.426666 4.23297 0.399999 4.27297 0.359999ZM11.053 1.5C10.973 1.48667 10.5063 1.47333 9.65297 1.46L8.33297 1.48C8.19964 1.49333 8.11297 1.53333 8.07297 1.6L6.79297 6.7H8.13297C9.1063 6.68667 9.63964 6.67333 9.73297 6.66C10.9463 6.48667 11.753 5.99333 12.153 5.18C12.3663 4.74 12.5396 4.16667 12.673 3.46C12.7263 3.11333 12.7263 2.82 12.673 2.58C12.513 1.99333 11.973 1.63333 11.053 1.5ZM21.2888 5.18H22.0888C23.0488 5.32667 23.6621 5.76667 23.9288 6.5C24.0088 6.76667 24.0221 7.04 23.9688 7.32C23.7421 8.34667 23.0021 9.02 21.7488 9.34C21.1888 9.5 20.2621 9.6 18.9688 9.64H18.3288L18.2888 9.76C18.2354 9.98667 18.1688 10.3333 18.0888 10.8C18.0354 11.2267 18.0354 11.6067 18.0888 11.94C18.1688 12.3267 18.3354 12.64 18.5888 12.88C18.8954 13.16 19.3088 13.2933 19.8288 13.28C20.8954 13.2133 21.7954 12.9067 22.5288 12.36C22.7821 12.2 22.9954 12.0067 23.1688 11.78C23.3154 11.6067 23.4354 11.5533 23.5288 11.62C23.5688 11.6467 23.6421 11.7133 23.7488 11.82C23.9354 12.02 24.0221 12.1467 24.0088 12.2C23.9954 12.2667 23.8488 12.44 23.5688 12.72C22.7288 13.52 21.6488 14 20.3288 14.16C19.8754 14.24 19.4754 14.2533 19.1288 14.2C17.8754 14.0667 17.0021 13.4333 16.5088 12.3C16.4154 12.1 16.3421 11.8867 16.2888 11.66C16.1954 11.3267 16.1488 10.9067 16.1488 10.4C16.1621 9.61333 16.3354 8.89333 16.6688 8.24C16.9088 7.74667 17.2354 7.29333 17.6488 6.88C17.8488 6.69333 18.0954 6.48667 18.3888 6.26C19.2021 5.66 20.0821 5.30667 21.0288 5.2C21.0954 5.18667 21.1821 5.18 21.2888 5.18ZM21.8288 6.12C21.3354 6.02667 20.8154 6.12 20.2688 6.4C19.4821 6.76 18.9354 7.45333 18.6288 8.48C18.6021 8.58667 18.5821 8.64667 18.5688 8.66C18.5688 8.68667 18.7888 8.7 19.2288 8.7C20.0954 8.68667 20.7488 8.62667 21.1888 8.52C22.0954 8.33333 22.6288 7.94667 22.7888 7.36C22.8421 7.14667 22.8354 6.96 22.7688 6.8C22.6488 6.45333 22.3354 6.22667 21.8288 6.12ZM30.6052 5.18H31.4252C32.3985 5.32667 33.0052 5.73333 33.2452 6.4C33.3785 6.8 33.3452 7.20667 33.1452 7.62C33.0518 7.79333 32.9652 7.92 32.8852 8C32.5252 8.33333 32.1385 8.46667 31.7252 8.4C31.5252 8.37333 31.3518 8.3 31.2052 8.18C31.0718 8.04667 30.9918 7.88667 30.9652 7.7C30.8985 7.3 31.0318 6.92 31.3652 6.56C31.4585 6.46667 31.5585 6.39333 31.6652 6.34C31.7052 6.31333 31.7318 6.29333 31.7452 6.28C31.7452 6.24 31.5652 6.18667 31.2052 6.12C30.3252 6 29.5318 6.3 28.8252 7.02C28.3585 7.52667 27.9852 8.31333 27.7052 9.38C27.6918 9.47333 27.6718 9.56667 27.6452 9.66C27.3785 10.7267 27.2718 11.4733 27.3252 11.9C27.4185 12.6067 27.7985 13.0467 28.4652 13.22C28.7452 13.3 29.1585 13.3 29.7052 13.22C30.5452 13.1 31.2585 12.8133 31.8452 12.36C32.0985 12.2 32.3118 12.0067 32.4852 11.78C32.6318 11.6067 32.7518 11.5533 32.8452 11.62C32.8852 11.6467 32.9585 11.7133 33.0652 11.82C33.2518 12.02 33.3385 12.1467 33.3252 12.2C33.2718 12.3467 33.0385 12.5933 32.6252 12.94C32.5585 12.9933 32.4985 13.04 32.4452 13.08C31.4985 13.8 30.3585 14.18 29.0252 14.22C28.1452 14.2333 27.3985 14.0333 26.7852 13.62C26.4785 13.4333 26.2052 13.1667 25.9652 12.82C25.7118 12.4467 25.5385 12.0333 25.4452 11.58C25.1918 10.34 25.4918 9.08667 26.3452 7.82C26.4385 7.67333 26.5385 7.53333 26.6452 7.4C26.8718 7.10667 27.1918 6.78667 27.6052 6.44C28.5518 5.68 29.5518 5.26 30.6052 5.18ZM38.0775 0.819999C38.3442 0.753333 38.5975 0.773333 38.8375 0.88C39.1975 1.05333 39.3575 1.36 39.3175 1.8C39.3042 1.86667 39.2908 1.92667 39.2775 1.98C39.1308 2.48667 38.7975 2.82667 38.2775 3C38.2508 3 38.2242 3.00667 38.1975 3.02C37.8108 3.12667 37.4842 3.04667 37.2175 2.78C36.9108 2.46 36.8775 2.07333 37.1175 1.62C37.3042 1.19333 37.6242 0.926666 38.0775 0.819999ZM36.2975 5.2C36.4842 5.16 36.7242 5.15333 37.0175 5.18C37.7908 5.32667 38.2775 5.74667 38.4775 6.44C38.5442 6.72 38.5442 7.01333 38.4775 7.32L37.5775 9.76C36.9775 11.3333 36.6708 12.1533 36.6575 12.22C36.4975 12.74 36.4908 13.0733 36.6375 13.22C36.6775 13.2467 36.7508 13.26 36.8575 13.26C37.0042 13.26 37.0975 13.2533 37.1375 13.24C37.7108 13.04 38.1508 12.4467 38.4575 11.46C38.4842 11.4067 38.5042 11.3467 38.5175 11.28C38.5842 11.08 38.6508 10.9733 38.7175 10.96C38.7575 10.9467 38.8775 10.94 39.0775 10.94C39.3308 10.94 39.4708 10.9533 39.4975 10.98C39.5642 11.0333 39.5775 11.1467 39.5375 11.32C39.2842 12.2 38.8842 12.9133 38.3375 13.46C37.9642 13.8067 37.5842 14.04 37.1975 14.16C37.0642 14.1867 36.8842 14.2 36.6575 14.2C36.4175 14.2 36.2442 14.1867 36.1375 14.16C35.7108 14.0533 35.3908 13.86 35.1775 13.58C35.0175 13.3933 34.9108 13.18 34.8575 12.94C34.7908 12.6467 34.7908 12.3467 34.8575 12.04L35.7775 9.58C36.3908 7.94 36.7175 7.04 36.7575 6.88C36.8108 6.65333 36.8108 6.45333 36.7575 6.28C36.6908 6.12 36.5442 6.06667 36.3175 6.12C35.9175 6.2 35.5575 6.50667 35.2375 7.04C35.0375 7.37333 34.8775 7.78 34.7575 8.26C34.7175 8.34 34.6908 8.38667 34.6775 8.4C34.6508 8.42667 34.5108 8.44 34.2575 8.44H33.8775L33.8175 8.38C33.7508 8.32667 33.7575 8.18667 33.8375 7.96C34.1708 6.84 34.7108 6.03333 35.4575 5.54C35.5242 5.5 35.5975 5.46 35.6775 5.42C35.9175 5.28667 36.1242 5.21333 36.2975 5.2ZM42.732 5.18C42.972 5.15333 43.2454 5.16 43.552 5.2C44.192 5.34667 44.6454 5.66667 44.912 6.16L44.992 6.32L45.172 6.16C45.7187 5.66667 46.3187 5.34667 46.972 5.2C47.3587 5.14667 47.7187 5.15333 48.052 5.22C48.612 5.34 49.0787 5.58667 49.452 5.96C49.7854 6.29333 50.0254 6.7 50.172 7.18C50.3987 7.84667 50.432 8.57333 50.272 9.36C50.0054 10.8133 49.3187 12.02 48.212 12.98C48.012 13.1533 47.812 13.3067 47.612 13.44C47.1987 13.7067 46.812 13.9 46.452 14.02C46.0787 14.14 45.712 14.2 45.352 14.2C45.0854 14.2 44.9254 14.1933 44.872 14.18C44.392 14.0733 44.012 13.86 43.732 13.54C43.652 13.46 43.612 13.4267 43.612 13.44L42.812 16.64C42.812 16.68 42.832 16.7 42.872 16.7C42.992 16.74 43.312 16.76 43.832 16.76C44.0854 16.76 44.2254 16.7733 44.252 16.8C44.332 16.8267 44.372 16.8867 44.372 16.98L44.172 17.76C44.1187 17.84 43.992 17.8733 43.792 17.86C43.7387 17.86 43.6387 17.86 43.492 17.86C41.7987 17.8067 40.552 17.8133 39.752 17.88H39.592L39.532 17.82C39.4787 17.7667 39.452 17.72 39.452 17.68L39.652 16.9V16.88C39.7454 16.8 39.932 16.76 40.212 16.76C40.5987 16.7467 40.8254 16.7067 40.892 16.64C40.932 16.6 41.3387 15.04 42.112 11.96C42.8854 8.86667 43.2854 7.24667 43.312 7.1C43.4054 6.46 43.2787 6.12667 42.932 6.1C42.892 6.1 42.852 6.1 42.812 6.1C42.412 6.18 42.0587 6.83333 41.752 8.06C41.6987 8.22 41.672 8.30667 41.672 8.32C41.5254 8.4 41.3654 8.44 41.192 8.44H40.812L40.752 8.38C40.6987 8.32667 40.6987 8.18667 40.752 7.96C41.0054 7.02667 41.3187 6.32667 41.692 5.86C41.9854 5.5 42.332 5.27333 42.732 5.18ZM47.692 6.16C47.5054 6.09333 47.2854 6.08667 47.032 6.14C46.4187 6.24667 45.8187 6.66667 45.232 7.4L45.052 7.62L44.532 9.72C44.1854 11.12 44.012 11.8267 44.012 11.84C44.012 11.9733 44.0987 12.2133 44.272 12.56C44.4187 12.8133 44.6187 13.0067 44.872 13.14C45.472 13.4467 46.0987 13.2933 46.752 12.68C47.192 12.28 47.5587 11.5867 47.852 10.6C48.0787 9.74667 48.2387 9.07333 48.332 8.58C48.5054 7.78 48.5187 7.19333 48.372 6.82C48.2387 6.48667 48.012 6.26667 47.692 6.16ZM56.2106 5.18H57.0106C57.9706 5.32667 58.584 5.76667 58.8506 6.5C58.9306 6.76667 58.944 7.04 58.8906 7.32C58.664 8.34667 57.924 9.02 56.6706 9.34C56.1106 9.5 55.184 9.6 53.8906 9.64H53.2506L53.2106 9.76C53.1573 9.98667 53.0906 10.3333 53.0106 10.8C52.9573 11.2267 52.9573 11.6067 53.0106 11.94C53.0906 12.3267 53.2573 12.64 53.5106 12.88C53.8173 13.16 54.2306 13.2933 54.7506 13.28C55.8173 13.2133 56.7173 12.9067 57.4506 12.36C57.704 12.2 57.9173 12.0067 58.0906 11.78C58.2373 11.6067 58.3573 11.5533 58.4506 11.62C58.4906 11.6467 58.564 11.7133 58.6706 11.82C58.8573 12.02 58.944 12.1467 58.9306 12.2C58.9173 12.2667 58.7706 12.44 58.4906 12.72C57.6506 13.52 56.5706 14 55.2506 14.16C54.7973 14.24 54.3973 14.2533 54.0506 14.2C52.7973 14.0667 51.924 13.4333 51.4306 12.3C51.3373 12.1 51.264 11.8867 51.2106 11.66C51.1173 11.3267 51.0706 10.9067 51.0706 10.4C51.084 9.61333 51.2573 8.89333 51.5906 8.24C51.8306 7.74667 52.1573 7.29333 52.5706 6.88C52.7706 6.69333 53.0173 6.48667 53.3106 6.26C54.124 5.66 55.004 5.30667 55.9506 5.2C56.0173 5.18667 56.104 5.18 56.2106 5.18ZM56.7506 6.12C56.2573 6.02667 55.7373 6.12 55.1906 6.4C54.404 6.76 53.8573 7.45333 53.5506 8.48C53.524 8.58667 53.504 8.64667 53.4906 8.66C53.4906 8.68667 53.7106 8.7 54.1506 8.7C55.0173 8.68667 55.6706 8.62667 56.1106 8.52C57.0173 8.33333 57.5506 7.94667 57.7106 7.36C57.764 7.14667 57.7573 6.96 57.6906 6.8C57.5706 6.45333 57.2573 6.22667 56.7506 6.12Z" fill="black"/>
</svg>
