<svg width="65" height="20" viewBox="0 0 65 20" fill="none" xmlns="http://www.w3.org/2000/svg">
<path d="M2.45023 1.52L2.51023 1.46H8.45024C12.4502 1.46 14.4836 1.5 14.5502 1.58C14.5769 1.64667 14.4636 2.44667 14.2102 3.98C13.9436 5.55333 13.8036 6.34667 13.7902 6.36C13.7369 6.42667 13.5769 6.46 13.3102 6.46C13.0302 6.46 12.8769 6.42 12.8502 6.34C12.8236 6.28667 12.8302 6.12 12.8702 5.84C13.0702 4.62667 13.1102 3.81333 12.9902 3.4C12.8702 3 12.4502 2.74 11.7302 2.62C11.6102 2.60667 11.2236 2.6 10.5702 2.6C9.81023 2.58667 9.3969 2.62 9.33024 2.7C9.30357 2.72667 8.8369 4.57333 7.93023 8.24L6.55023 13.74L6.61023 13.78C6.78357 13.8467 7.44357 13.88 8.59023 13.88H9.21023L9.29023 13.94C9.33023 13.9933 9.35023 14.04 9.35023 14.08L9.17023 14.88C9.13023 14.96 8.9969 14.9933 8.77024 14.98C8.69023 14.98 8.4969 14.98 8.19023 14.98C5.40357 14.9267 3.23023 14.9333 1.67023 15H1.37023L1.31023 14.94C1.24357 14.8733 1.2369 14.72 1.29023 14.48C1.29023 14.4533 1.2969 14.4267 1.31023 14.4C1.3769 14.1067 1.4369 13.9467 1.49023 13.92C1.53023 13.8933 1.76357 13.88 2.19023 13.88C3.08357 13.88 3.66357 13.86 3.93023 13.82C4.14357 13.8067 4.29023 13.76 4.37023 13.68C4.3969 13.64 4.86357 11.7933 5.77023 8.14C6.69023 4.47333 7.15023 2.63333 7.15023 2.62C7.0969 2.59333 6.68357 2.58 5.91023 2.58C5.2969 2.59333 4.92357 2.61333 4.79023 2.64C4.0169 2.76 3.45023 3.04 3.09023 3.48C2.74357 3.90667 2.37023 4.71333 1.97023 5.9C1.86357 6.19333 1.81023 6.34667 1.81023 6.36C1.7569 6.42667 1.5969 6.46 1.33023 6.46C1.06357 6.46 0.903568 6.41333 0.850234 6.32L0.830234 6.26L1.59023 3.92C2.12357 2.36 2.41023 1.56 2.45023 1.52ZM17.8299 6.2C18.2966 6.13333 18.7566 6.15333 19.2099 6.26C20.2499 6.48667 20.9966 7.06667 21.4499 8C21.9833 9.06667 21.9566 10.26 21.3699 11.58C21.2633 11.82 21.1433 12.0533 21.0099 12.28C20.2499 13.5467 19.1966 14.4267 17.8499 14.92C17.5033 15.04 17.1499 15.1267 16.7899 15.18C16.5099 15.2333 16.1566 15.24 15.7299 15.2C15.6899 15.1867 15.6566 15.18 15.6299 15.18C14.8699 15.06 14.2299 14.7533 13.7099 14.26C13.2699 13.8067 12.9833 13.2733 12.8499 12.66C12.5699 11.46 12.8366 10.2267 13.6499 8.96C14.1299 8.21333 14.7299 7.6 15.4499 7.12C16.2366 6.58667 17.0299 6.28 17.8299 6.2ZM18.5099 7.12C17.9899 7.05333 17.4899 7.15333 17.0099 7.42C16.2499 7.83333 15.6966 8.54 15.3499 9.54C15.1233 10.1533 14.9433 10.8267 14.8099 11.56C14.5699 12.7467 14.7366 13.5533 15.3099 13.98C15.3499 14.0067 15.3899 14.0333 15.4299 14.06C15.6033 14.1667 15.7899 14.2267 15.9899 14.24C16.7233 14.3733 17.4233 14.1533 18.0899 13.58C18.2366 13.46 18.3699 13.3267 18.4899 13.18C18.8899 12.7 19.2166 11.9467 19.4699 10.92C19.4966 10.8533 19.5166 10.78 19.5299 10.7C19.7433 9.86 19.8499 9.23333 19.8499 8.82C19.8499 8.48667 19.8099 8.22667 19.7299 8.04C19.6233 7.74667 19.4233 7.51333 19.1299 7.34C18.9566 7.22 18.7499 7.14667 18.5099 7.12ZM30.617 1.24C31.6836 1.16 32.2103 1.12 32.197 1.12C32.317 1.12 32.397 1.16667 32.437 1.26C32.4503 1.31333 31.9703 3.3 30.997 7.22C29.997 11.1933 29.497 13.22 29.497 13.3C29.4436 13.58 29.4503 13.8133 29.517 14C29.597 14.2133 29.7503 14.3067 29.977 14.28C30.137 14.2667 30.3036 14.14 30.477 13.9C30.6636 13.62 30.857 13.1 31.057 12.34C31.1103 12.1133 31.1703 11.9867 31.237 11.96C31.277 11.9467 31.4036 11.94 31.617 11.94C31.8703 11.94 32.0103 11.9533 32.037 11.98C32.117 12.0333 32.117 12.1867 32.037 12.44C31.6903 13.68 31.2436 14.5 30.697 14.9C30.4836 15.06 30.2703 15.16 30.057 15.2C29.777 15.24 29.477 15.22 29.157 15.14C28.557 15.0067 28.1303 14.6933 27.877 14.2L27.817 14.06L27.697 14.16C26.6436 15.0667 25.6036 15.3867 24.577 15.12C24.2836 15.04 24.0103 14.92 23.757 14.76C22.997 14.2267 22.5636 13.4333 22.457 12.38C22.417 11.9 22.4503 11.38 22.557 10.82C22.757 9.95333 23.1103 9.17333 23.617 8.48C24.4303 7.33333 25.4436 6.6 26.657 6.28C26.8836 6.21333 27.1636 6.18 27.497 6.18C27.7503 6.18 27.937 6.19333 28.057 6.22C28.417 6.31333 28.7436 6.50667 29.037 6.8L29.197 6.96L29.217 6.88C29.217 6.90667 29.3836 6.25333 29.717 4.92C30.077 3.48 30.2303 2.72 30.177 2.64C30.097 2.52 29.757 2.46 29.157 2.46C28.917 2.46 28.777 2.41333 28.737 2.32C28.7236 2.25333 28.7503 2.1 28.817 1.86C28.8703 1.60667 28.9236 1.45333 28.977 1.4C29.017 1.36 29.057 1.34 29.097 1.34C29.217 1.34 29.7236 1.30667 30.617 1.24ZM27.777 7.16C27.5103 7.09333 27.2903 7.08 27.117 7.12C26.7036 7.2 26.3036 7.43333 25.917 7.82C25.5303 8.23333 25.1903 8.96667 24.897 10.02C24.8303 10.26 24.757 10.54 24.677 10.86C24.4503 11.7667 24.337 12.44 24.337 12.88C24.337 13.2933 24.4236 13.62 24.597 13.86C24.917 14.2867 25.397 14.3933 26.037 14.18C26.5836 13.9933 27.1103 13.5733 27.617 12.92L27.757 12.74L28.277 10.64L28.797 8.54L28.757 8.38C28.5703 7.72667 28.2436 7.32 27.777 7.16ZM37.5876 6.18C37.6009 6.16667 37.7209 6.16 37.9476 6.16C38.1876 6.18667 38.3542 6.20667 38.4476 6.22C38.8876 6.35333 39.2476 6.58 39.5276 6.9L39.6276 7.04L39.7676 6.9C40.1276 6.56667 40.5009 6.47333 40.8876 6.62C41.0876 6.68667 41.2209 6.81333 41.2876 7C41.3409 7.16 41.3076 7.49333 41.1876 8C41.1076 8.34667 40.9209 9.1 40.6276 10.26C40.1609 12.0867 39.9142 13.0933 39.8876 13.28C39.8342 13.5733 39.8409 13.8133 39.9076 14C39.9876 14.2133 40.1409 14.3067 40.3676 14.28C40.5276 14.2667 40.6942 14.14 40.8676 13.9C41.0542 13.62 41.2476 13.1 41.4476 12.34C41.5009 12.1133 41.5609 11.9867 41.6276 11.96C41.6676 11.9467 41.7942 11.94 42.0076 11.94C42.2609 11.94 42.4009 11.9533 42.4276 11.98C42.5076 12.0333 42.5076 12.1867 42.4276 12.44C42.0809 13.68 41.6342 14.5 41.0876 14.9C40.8742 15.06 40.6609 15.16 40.4476 15.2C40.1676 15.24 39.8676 15.22 39.5476 15.14C38.9476 15.0067 38.5209 14.6933 38.2676 14.2L38.2076 14.06L38.0876 14.16C37.0342 15.0667 35.9942 15.3867 34.9676 15.12C34.6742 15.04 34.4009 14.92 34.1476 14.76C33.3876 14.2267 32.9542 13.4333 32.8476 12.38C32.7942 12.02 32.8009 11.6333 32.8676 11.22C33.0409 10.1 33.5009 9.07333 34.2476 8.14C34.5009 7.83333 34.7809 7.55333 35.0876 7.3C35.8476 6.67333 36.6142 6.30667 37.3876 6.2C37.4409 6.18667 37.5076 6.18 37.5876 6.18ZM38.1676 7.16C37.9009 7.09333 37.6809 7.08 37.5076 7.12C37.0942 7.2 36.6942 7.43333 36.3076 7.82C35.9209 8.23333 35.5809 8.96667 35.2876 10.02C35.2209 10.26 35.1476 10.54 35.0676 10.86C34.8409 11.7667 34.7276 12.44 34.7276 12.88C34.7276 13.2933 34.8142 13.62 34.9876 13.86C35.2409 14.1933 35.5942 14.3267 36.0476 14.26C36.5542 14.2067 37.0742 13.9133 37.6076 13.38C37.8476 13.14 38.0276 12.92 38.1476 12.72C38.1476 12.76 38.3276 12.06 38.6876 10.62L39.1876 8.56L39.1676 8.42C38.9942 7.75333 38.6609 7.33333 38.1676 7.16ZM45.6735 6.2C45.9402 6.13333 46.2535 6.14 46.6135 6.22C47.2935 6.40667 47.7268 6.81333 47.9135 7.44C47.9668 7.66667 47.9668 7.95333 47.9135 8.3C47.8868 8.39333 47.7868 8.66667 47.6135 9.12C47.1335 10.4133 46.8202 11.4067 46.6735 12.1C46.5268 12.9933 46.6068 13.6133 46.9135 13.96C47.1402 14.2267 47.4602 14.3267 47.8735 14.26C48.4735 14.18 49.0002 13.82 49.4535 13.18L49.5735 13L50.2935 10.06C50.8002 8.07333 51.0735 7.04667 51.1135 6.98C51.3268 6.59333 51.6468 6.39333 52.0735 6.38C52.2868 6.38 52.4668 6.44 52.6135 6.56C52.6802 6.58667 52.7402 6.66 52.7935 6.78C52.8602 6.91333 52.8735 7.08 52.8335 7.28C52.7935 7.48 52.4735 8.79333 51.8735 11.22C51.1268 14.1267 50.7668 15.5333 50.7935 15.44C50.6602 15.8667 50.4602 16.26 50.1935 16.62C49.4468 17.7533 48.4602 18.5133 47.2335 18.9C46.6468 19.1 46.0735 19.16 45.5135 19.08C44.5135 18.9333 43.8868 18.48 43.6335 17.72C43.5802 17.4267 43.5868 17.1533 43.6535 16.9C43.7335 16.5667 43.9002 16.3 44.1535 16.1C44.6335 15.7533 45.0868 15.6867 45.5135 15.9C45.6735 15.9933 45.7935 16.12 45.8735 16.28C46.0202 16.6 45.9935 16.9467 45.7935 17.32C45.6602 17.5733 45.4802 17.76 45.2535 17.88L45.1335 17.96L45.2335 18C45.7535 18.2267 46.3002 18.2267 46.8735 18C47.5935 17.7067 48.1935 17.06 48.6735 16.06C48.7668 15.8467 48.8535 15.6333 48.9335 15.42C49.0935 14.9533 49.1602 14.7133 49.1335 14.7C49.1202 14.7 49.0735 14.7267 48.9935 14.78C48.7935 14.9 48.5802 15 48.3535 15.08C47.6202 15.3333 46.8668 15.2867 46.0935 14.94C45.9068 14.86 45.7402 14.76 45.5935 14.64C44.9935 14.16 44.7335 13.4267 44.8135 12.44C44.8668 11.7867 45.1802 10.6867 45.7535 9.14C45.7668 9.08667 45.7802 9.04 45.7935 9C45.9802 8.53333 46.0802 8.25333 46.0935 8.16C46.2535 7.70667 46.2735 7.39333 46.1535 7.22C46.1002 7.14 45.9935 7.1 45.8335 7.1C45.2602 7.15333 44.7868 7.64 44.4135 8.56C44.3468 8.72 44.2868 8.89333 44.2335 9.08C44.1668 9.29333 44.1135 9.40667 44.0735 9.42C44.0602 9.43333 43.9202 9.44 43.6535 9.44H43.2935L43.2335 9.38C43.1668 9.32667 43.1735 9.18667 43.2535 8.96C43.5068 8.10667 43.8935 7.43333 44.4135 6.94C44.7868 6.55333 45.2068 6.30667 45.6735 6.2ZM53.8582 5.62C54.0982 5.08667 54.3382 4.53333 54.5782 3.96C54.8315 3.37333 55.0649 2.8 55.2782 2.24C55.5049 1.68 55.6915 1.17333 55.8382 0.719999H57.7582L57.8382 0.94C57.6249 1.40667 57.3715 1.91333 57.0782 2.46C56.7982 2.99333 56.4915 3.53333 56.1582 4.08C55.8382 4.61333 55.5182 5.12667 55.1982 5.62H53.8582ZM61.7148 6.18C62.0214 6.15333 62.3748 6.16 62.7748 6.2C63.4281 6.33333 63.8948 6.58 64.1748 6.94C64.3081 7.08667 64.4081 7.28 64.4748 7.52C64.5414 7.76 64.5414 8.01333 64.4748 8.28C64.3548 8.78667 64.0481 9.1 63.5548 9.22C63.3948 9.26 63.2348 9.26 63.0748 9.22C62.8481 9.18 62.6814 9.06 62.5748 8.86C62.5348 8.79333 62.5081 8.69333 62.4948 8.56C62.4948 8.34667 62.5414 8.14667 62.6348 7.96C62.7148 7.77333 62.8614 7.61333 63.0748 7.48L63.1948 7.4L63.0948 7.34C62.6681 7.1 62.1748 7.03333 61.6148 7.14C61.5348 7.15333 61.4614 7.17333 61.3948 7.2C61.0748 7.29333 60.8281 7.48 60.6548 7.76C60.2948 8.29333 60.2814 8.72 60.6148 9.04C60.6414 9.06667 60.6748 9.09333 60.7148 9.12C60.8481 9.21333 61.1481 9.31333 61.6148 9.42C62.0414 9.5 62.3014 9.56 62.3948 9.6C63.1414 9.82667 63.6414 10.26 63.8948 10.9C64.0014 11.1267 64.0548 11.4067 64.0548 11.74C64.0548 11.9933 64.0481 12.16 64.0348 12.24C63.9148 12.7867 63.7014 13.2667 63.3948 13.68C62.6348 14.7467 61.4548 15.26 59.8548 15.22C58.6814 15.18 57.8748 14.82 57.4348 14.14C57.3948 14.0867 57.3614 14.0267 57.3348 13.96C57.2414 13.7733 57.1948 13.5467 57.1948 13.28C57.1814 13.0133 57.2348 12.7533 57.3548 12.5C57.4614 12.3267 57.5481 12.2 57.6148 12.12C58.0414 11.7067 58.5014 11.5933 58.9948 11.78C59.0214 11.7933 59.0481 11.8067 59.0748 11.82C59.3414 11.94 59.4948 12.1467 59.5348 12.44C59.6014 12.88 59.4481 13.2667 59.0748 13.6C58.9948 13.68 58.9014 13.7467 58.7948 13.8C58.7014 13.8533 58.6481 13.8867 58.6348 13.9C58.6748 13.9667 58.8481 14.0467 59.1548 14.14C59.4214 14.22 59.7548 14.26 60.1548 14.26C60.5548 14.26 60.8748 14.22 61.1148 14.14C61.5548 14.0067 61.8881 13.7533 62.1148 13.38C62.4214 12.94 62.4881 12.5533 62.3148 12.22C62.1814 11.94 61.9548 11.7467 61.6348 11.64C61.5414 11.6 61.2948 11.54 60.8948 11.46C60.4281 11.3667 60.0681 11.2667 59.8148 11.16C59.2814 10.8667 58.9348 10.4333 58.7748 9.86C58.7481 9.75333 58.7348 9.58667 58.7348 9.36C58.7214 9.12 58.7681 8.82 58.8748 8.46C59.0214 8.02 59.2414 7.62 59.5348 7.26C60.0414 6.66 60.7681 6.3 61.7148 6.18Z" fill="black"/>
</svg>
